<svg width="18" height="18" viewBox="0 0 18 18" fill="none" xmlns="http://www.w3.org/2000/svg">
<path d="M4.73734 11.8484C4.34681 12.239 4.34681 12.8721 4.73734 13.2627C5.12786 13.6532 5.76103 13.6532 6.15155 13.2627L4.73734 11.8484ZM11.5556 8.11111C11.5556 9.03159 10.8094 9.77778 9.88889 9.77778V11.7778C11.9139 11.7778 13.5556 10.1362 13.5556 8.11111H11.5556ZM8.22222 8.11111C8.22222 7.19064 8.96841 6.44444 9.88889 6.44444V4.44444C7.86384 4.44444 6.22222 6.08607 6.22222 8.11111H8.22222ZM9.88889 6.44444C10.8094 6.44444 11.5556 7.19064 11.5556 8.11111H13.5556C13.5556 6.08607 11.9139 4.44444 9.88889 4.44444V6.44444ZM7.29616 9.28962L4.73734 11.8484L6.15155 13.2627L8.71038 10.7038L7.29616 9.28962ZM9.88889 9.77778C9.42838 9.77778 9.01308 9.59233 8.71038 9.28962L7.29616 10.7038C7.95861 11.3663 8.87664 11.7778 9.88889 11.7778V9.77778ZM8.71038 9.28962C8.40768 8.98692 8.22222 8.57163 8.22222 8.11111H6.22222C6.22222 9.12336 6.63372 10.0414 7.29616 10.7038L8.71038 9.28962ZM16 9C16 12.866 12.866 16 9 16V18C13.9706 18 18 13.9706 18 9H16ZM9 16C5.13401 16 2 12.866 2 9H0C0 13.9706 4.02944 18 9 18V16ZM2 9C2 5.13401 5.13401 2 9 2V0C4.02944 0 0 4.02944 0 9H2ZM9 2C12.866 2 16 5.13401 16 9H18C18 4.02944 13.9706 0 9 0V2Z" fill="black"/>
</svg>
